<?xml version="1.0" encoding="UTF-8" standalone="no"?>
<svg width="512" height="512" viewBox="0 0 512 512" fill="none" xmlns="http://www.w3.org/2000/svg">
  <rect width="512" height="512" rx="64" fill="#4A86E8"/>
  <path d="M256 128C185.307 128 128 185.307 128 256C128 326.693 185.307 384 256 384C326.693 384 384 326.693 384 256C384 185.307 326.693 128 256 128ZM256 352C203.065 352 160 308.935 160 256C160 203.065 203.065 160 256 160C308.935 160 352 203.065 352 256C352 308.935 308.935 352 256 352Z" fill="white"/>
  <path d="M256 192C221.888 192 194 219.888 194 254C194 288.112 221.888 316 256 316C290.112 316 318 288.112 318 254C318 219.888 290.112 192 256 192ZM256 284C239.431 284 226 270.569 226 254C226 237.431 239.431 224 256 224C272.569 224 286 237.431 286 254C286 270.569 272.569 284 256 284Z" fill="white"/>
  <path d="M256 240C248.268 240 242 246.268 242 254C242 261.732 248.268 268 256 268C263.732 268 270 261.732 270 254C270 246.268 263.732 240 256 240Z" fill="white"/>
</svg>
